<?xml version="1.0" encoding="UTF-8"?>
<svg width="116px" height="40px" viewBox="0 0 116 40" version="1.1" xmlns="http://www.w3.org/2000/svg" xmlns:xlink="http://www.w3.org/1999/xlink">
    <!-- Generator: sketchtool 59 (101010) - https://sketch.com -->
    <title>CEB59437-14A9-4A7A-910C-8CA51C7D4F05@1.00x</title>
    <desc>Created with sketchtool.</desc>
    <g id="Tile" stroke="none" stroke-width="1" fill="none" fill-rule="evenodd">
        <g id="Gyazo" transform="translate(-722.000000, -693.000000)" fill="#262626" fill-rule="nonzero">
            <g id="Gyazo-text" transform="translate(722.000000, 693.000000)">
                <path d="M16.1611328,14.2871094 L27.9990234,14.2871094 L27.9990234,15.2333984 C27.9990234,17.3857529 27.7454452,19.2906818 27.2382812,20.9482422 C26.7434871,22.482104 25.9085345,23.9169855 24.7333984,25.2529297 C22.0738799,28.2464342 18.6907757,29.7431641 14.5839844,29.7431641 C10.5761518,29.7431641 7.14356897,28.2959129 4.28613281,25.4013672 C1.42869665,22.4944516 0,19.0062052 0,14.9365234 C0,10.7802527 1.45343599,7.25489729 4.36035156,4.36035156 C7.26726714,1.45343599 10.8049922,0 14.9736328,0 C17.2125763,0 19.3030502,0.457677715 21.2451172,1.37304688 C23.1005952,2.28841604 24.9251212,3.77277619 26.71875,5.82617188 L23.6386719,8.77636719 C21.2883997,5.64679425 18.4248216,4.08203125 15.0478516,4.08203125 C12.0172375,4.08203125 9.47527068,5.12726819 7.421875,7.21777344 C5.36847932,9.27116912 4.34179688,11.8440601 4.34179688,14.9365234 C4.34179688,18.1279456 5.48599116,20.7565001 7.77441406,22.8222656 C9.91439872,24.7395929 12.2337115,25.6982422 14.7324219,25.6982422 C16.8600367,25.6982422 18.7711504,24.9808014 20.4658203,23.5458984 C22.1604902,22.0986256 23.1067698,20.3668721 23.3046875,18.3505859 L16.1611328,18.3505859 L16.1611328,14.2871094 Z M38.3339844,25.8466797 L30.2070312,11.1328125 L35.0498047,11.1328125 L40.5791016,21.5234375 L45.7373047,11.1328125 L50.4501953,11.1328125 L36.0517578,39.0390625 L31.2832031,39.0390625 L38.3339844,25.8466797 Z M66.6113281,11.1328125 L70.8046875,11.1328125 L70.8046875,29.2050781 L66.6113281,29.2050781 L66.6113281,27.3125 C64.8919185,28.920581 63.0426531,29.7246094 61.0634766,29.7246094 C58.5647662,29.7246094 56.4990316,28.8216236 54.8662109,27.015625 C53.2457601,25.1725168 52.4355469,22.8717586 52.4355469,20.1132812 C52.4355469,17.4042833 53.2457601,15.1468189 54.8662109,13.3408203 C56.4866617,11.5348217 58.5152873,10.6318359 60.9521484,10.6318359 C63.0550235,10.6318359 64.9413979,11.4977127 66.6113281,13.2294922 L66.6113281,11.1328125 Z M56.703125,20.1132812 C56.703125,21.8450607 57.1669875,23.2552029 58.0947266,24.34375 C59.0472053,25.444667 60.2470631,25.9951172 61.6943359,25.9951172 C63.2405676,25.9951172 64.4899041,25.4632215 65.4423828,24.3994141 C66.3948615,23.2984971 66.8710938,21.9007246 66.8710938,20.2060547 C66.8710938,18.5113848 66.3948615,17.1136123 65.4423828,16.0126953 C64.4899041,14.9365181 63.2529373,14.3984375 61.7314453,14.3984375 C60.2965423,14.3984375 59.0966845,14.9427029 58.1318359,16.03125 C57.1793572,17.132167 56.703125,18.4928304 56.703125,20.1132812 Z M82.0673828,25.2714844 L92.8105469,25.2714844 L92.8105469,29.2050781 L73.7919922,29.2050781 L85.5,15.0292969 L76.2783203,15.0292969 L76.2783203,11.1328125 L93.7568359,11.1328125 L82.0673828,25.2714844 Z M105.501953,10.6318359 C108.198581,10.6318359 110.48697,11.5533762 112.367188,13.3964844 C114.222666,15.2395925 115.150391,17.5032418 115.150391,20.1875 C115.150391,22.8964979 114.216481,25.166332 112.348633,26.9970703 C110.468415,28.8154388 108.161472,29.7246094 105.427734,29.7246094 C102.718736,29.7246094 100.448902,28.7968843 98.6181641,26.9414062 C96.7874257,25.1106679 95.8720703,22.8099097 95.8720703,20.0390625 C95.8720703,17.4290234 96.8059802,15.208668 98.6738281,13.3779297 C100.541676,11.5471914 102.817695,10.6318359 105.501953,10.6318359 Z M105.501953,14.3984375 C103.906242,14.3984375 102.613612,14.9303332 101.624023,15.9941406 C100.634435,17.057948 100.139648,18.4309812 100.139648,20.1132812 C100.139648,21.9192799 100.622065,23.3479765 101.586914,24.3994141 C102.576502,25.4632215 103.881502,25.9951172 105.501953,25.9951172 C107.134774,25.9951172 108.439774,25.4694063 109.416992,24.4179688 C110.394211,23.3665312 110.882812,21.9625739 110.882812,20.2060547 C110.882812,18.4495355 110.394211,17.0455782 109.416992,15.9941406 C108.427404,14.9303332 107.122404,14.3984375 105.501953,14.3984375 Z" id="Gyazo"></path>
            </g>
        </g>
    </g>
</svg>