<?xml version="1.0" encoding="UTF-8"?>
<svg width="614px" height="260px" viewBox="0 0 614 260" version="1.1" xmlns="http://www.w3.org/2000/svg" xmlns:xlink="http://www.w3.org/1999/xlink">
    <!-- Generator: sketchtool 59 (101010) - https://sketch.com -->
    <title>97A9F989-2457-4F9F-8366-B96C609C1113@1.00x</title>
    <desc>Created with sketchtool.</desc>
    <defs>
        <linearGradient x1="24.5527794%" y1="50%" x2="14.9033211%" y2="52.2801371%" id="linearGradient-1">
            <stop stop-color="#84B9FF" offset="0%"></stop>
            <stop stop-color="#79ADFF" offset="100%"></stop>
        </linearGradient>
        <linearGradient x1="42.4634862%" y1="65.8960451%" x2="48.4894013%" y2="88.3135634%" id="linearGradient-2">
            <stop stop-color="#568FFF" offset="0%"></stop>
            <stop stop-color="#4C7FF2" offset="100%"></stop>
        </linearGradient>
        <linearGradient x1="66.4917976%" y1="53.7522695%" x2="85.7533908%" y2="49.4420381%" id="linearGradient-3">
            <stop stop-color="#1556FF" offset="0%"></stop>
            <stop stop-color="#0C46F2" offset="100%"></stop>
        </linearGradient>
    </defs>
    <g id="Tile" stroke="none" stroke-width="1" fill="none" fill-rule="evenodd">
        <g id="Gyazo" transform="translate(-215.000000, -1553.000000)">
            <g id="Gyazo-Logo2" transform="translate(215.000000, 1553.000000)">
                <g id="Gyazo-circle" fill-rule="evenodd">
                    <ellipse id="Oval" fill="#FFFFFF" cx="129.864583" cy="130" rx="129.864583" ry="130"></ellipse>
                    <g id="G-Icon" transform="translate(52.000000, 52.000000)">
                        <path d="M156,0 L155.284949,0 L111.392823,0.000513604776 L25.3571608,0.000513604776 C11.3524015,0.00102720955 0,11.2787609 0,25.1907734 L0,77.4834437 L118.217603,18.7666049 L156,0 Z" id="Fill-1" fill="url(#linearGradient-1)"></path>
                        <path d="M0,130.781154 C0,144.709184 11.2777337,156 25.1902598,156 L77.4834437,156 L4.79307691,10.4801 C1.13197256,15.7527286 0,20.4012075 0,26.0787513 L0,130.781154 Z" id="Fill-7" fill="url(#linearGradient-2)"></path>
                        <path d="M130.674679,156 C144.661283,156 156,144.692958 156,130.744912 C156,130.744912 136.57587,88.0035974 126.863805,92.8460299 C88.0195788,112.213749 10.2409061,151.056289 10.2409061,151.056289 C14.4740134,154.227657 19.8254102,156 25.5275576,156 L130.674679,156 Z" id="Fill-9" fill="url(#linearGradient-3)"></path>
                        <path d="M112.092715,67.6688742 C112.46126,68.3824094 112.13132,67.7243143 112.328975,68.1185553 L151.1098,145.653073 C154.765998,140.86326 156,135.716005 156,130.046224 L156,67.6688742 L112.092715,67.6688742 Z" id="Fill-12" fill="#0222B8"></path>
                    </g>
                </g>
                <path d="M360.397338,123.596958 L390.720532,123.596958 L390.720532,126.020913 C390.720532,131.534248 390.070982,136.413794 388.771863,140.659696 C387.50443,144.58874 385.365668,148.264241 382.355513,151.686312 C375.543058,159.354284 366.877112,163.188213 356.357414,163.188213 C346.091203,163.188213 337.298516,159.481026 329.979087,152.06654 C322.659659,144.620368 319,135.685096 319,125.260456 C319,114.614015 322.72303,105.583687 330.169202,98.1692015 C337.615373,90.7230299 346.677386,87 357.355513,87 C363.09065,87 368.445476,88.1723584 373.420152,90.5171103 C378.173028,92.8618622 382.846618,96.6641055 387.441065,101.923954 L379.551331,109.480989 C373.531022,101.464472 366.195861,97.4562738 357.545627,97.4562738 C349.782597,97.4562738 343.271256,100.133687 338.011407,105.488593 C332.751558,110.748442 330.121673,117.338997 330.121673,125.260456 C330.121673,133.435402 333.052569,140.168541 338.914449,145.460076 C344.396098,150.371381 350.337104,152.826996 356.737643,152.826996 C362.187606,152.826996 367.082995,150.989245 371.423954,147.313688 C375.764914,143.606445 378.188844,139.170495 378.695817,134.005703 L360.397338,134.005703 L360.397338,123.596958 Z M417.193916,153.207224 L396.376426,115.51711 L408.781369,115.51711 L422.944867,142.13308 L436.157795,115.51711 L448.230038,115.51711 L411.347909,187 L399.13308,187 L417.193916,153.207224 Z M489.627376,115.51711 L500.368821,115.51711 L500.368821,161.809886 L489.627376,161.809886 L489.627376,156.961977 C485.223045,161.081136 480.486084,163.140684 475.41635,163.140684 C469.015811,163.140684 463.724356,160.827653 459.541825,156.201521 C455.390981,151.480331 453.315589,145.586854 453.315589,138.520913 C453.315589,131.581714 455.390981,125.799136 459.541825,121.173004 C463.69267,116.546872 468.889069,114.23384 475.131179,114.23384 C480.517771,114.23384 485.349788,116.451816 489.627376,120.887833 L489.627376,115.51711 Z M464.247148,138.520913 C464.247148,142.95693 465.435349,146.569061 467.811787,149.357414 C470.251596,152.177454 473.325077,153.587452 477.032319,153.587452 C480.993049,153.587452 484.19327,152.224982 486.63308,149.5 C489.072889,146.679961 490.292776,143.099515 490.292776,138.758555 C490.292776,134.417596 489.072889,130.83715 486.63308,128.01711 C484.19327,125.260442 481.024734,123.882129 477.127376,123.882129 C473.451819,123.882129 470.378339,125.276285 467.906844,128.064639 C465.467035,130.884678 464.247148,134.370068 464.247148,138.520913 Z M529.218631,151.73384 L556.737643,151.73384 L556.737643,161.809886 L508.020913,161.809886 L538.011407,125.498099 L514.389734,125.498099 L514.389734,115.51711 L559.161597,115.51711 L529.218631,151.73384 Z M589.247148,114.23384 C596.154661,114.23384 602.016452,116.5944 606.8327,121.315589 C611.585575,126.036779 613.961977,131.8352 613.961977,138.711027 C613.961977,145.650225 611.569732,151.464489 606.785171,156.153992 C601.968924,160.81181 596.059604,163.140684 589.057034,163.140684 C582.117836,163.140684 576.303572,160.764282 571.614068,156.011407 C566.924565,151.321903 564.579848,145.428426 564.579848,138.330798 C564.579848,131.645087 566.972093,125.957565 571.756654,121.268061 C576.541215,116.578557 582.371322,114.23384 589.247148,114.23384 Z M589.247148,123.882129 C585.159675,123.882129 581.848555,125.2446 579.313688,127.969582 C576.778821,130.694564 575.511407,134.211639 575.511407,138.520913 C575.511407,143.147045 576.747136,146.806704 579.218631,149.5 C581.753498,152.224982 585.096304,153.587452 589.247148,153.587452 C593.429679,153.587452 596.772484,152.240825 599.275665,149.547529 C601.778846,146.854232 603.030418,143.257944 603.030418,138.758555 C603.030418,134.259166 601.778846,130.662878 599.275665,127.969582 C596.740798,125.2446 593.397993,123.882129 589.247148,123.882129 Z" id="Gyazo" fill="#262626" fill-rule="nonzero"></path>
            </g>
        </g>
    </g>
</svg>