<?xml version="1.0" encoding="UTF-8"?>
<svg width="200px" height="200px" viewBox="0 0 200 200" version="1.1" xmlns="http://www.w3.org/2000/svg" xmlns:xlink="http://www.w3.org/1999/xlink">
    <!-- Generator: sketchtool 59 (101010) - https://sketch.com -->
    <title>5CC81EFE-5A17-44EB-85AB-B6074D9FAB7A@1.00x</title>
    <desc>Created with sketchtool.</desc>
    <defs>
        <linearGradient x1="24.5527794%" y1="50%" x2="14.9033211%" y2="52.2801371%" id="linearGradient-1">
            <stop stop-color="#84B9FF" offset="0%"></stop>
            <stop stop-color="#79ADFF" offset="100%"></stop>
        </linearGradient>
        <linearGradient x1="42.4634862%" y1="65.8960451%" x2="48.4894013%" y2="88.3135634%" id="linearGradient-2">
            <stop stop-color="#568FFF" offset="0%"></stop>
            <stop stop-color="#4C7FF2" offset="100%"></stop>
        </linearGradient>
        <linearGradient x1="66.4917976%" y1="53.7522695%" x2="85.7533908%" y2="49.4420381%" id="linearGradient-3">
            <stop stop-color="#1556FF" offset="0%"></stop>
            <stop stop-color="#0C46F2" offset="100%"></stop>
        </linearGradient>
    </defs>
    <g id="Tile" stroke="none" stroke-width="1" fill="none" fill-rule="evenodd">
        <g id="Gyazo" transform="translate(-250.000000, -613.000000)">
            <g id="Gyazo-circle" transform="translate(250.000000, 613.000000)">
                <ellipse id="Oval" fill="#FFFFFF" cx="99.8958333" cy="100" rx="99.8958333" ry="100"></ellipse>
                <g id="G-Icon" transform="translate(40.000000, 40.000000)">
                    <path d="M120,0 L119.449961,0 L85.6867866,0.000395080597 L19.5055083,0.000395080597 C8.73261656,0.000790161194 0,8.67596991 0,19.377518 L0,59.602649 L90.9366176,14.4358499 L120,0 Z" id="Fill-1" fill="url(#linearGradient-1)"></path>
                    <path d="M0,100.600888 C0,111.314757 8.67517975,120 19.377123,120 L59.602649,120 L3.68698224,8.06161539 C0.870748123,12.1174835 0,15.6932365 0,20.0605779 L0,100.600888 Z" id="Fill-7" fill="url(#linearGradient-2)"></path>
                    <path d="M100.518984,120 C111.27791,120 120,111.302275 120,100.573009 C120,100.573009 105.058362,67.6950749 97.5875425,71.420023 C67.7073683,86.3182688 7.87762007,116.197145 7.87762007,116.197145 C11.1338564,118.636659 15.2503156,120 19.6365827,120 L100.518984,120 Z" id="Fill-9" fill="url(#linearGradient-3)"></path>
                    <path d="M86.2251656,52.0529801 C86.5086616,52.6018534 86.2548614,52.0956264 86.406904,52.3988887 L116.238308,112.040826 C119.050768,108.356354 120,104.396927 120,100.035557 L120,52.0529801 L86.2251656,52.0529801 Z" id="Fill-12" fill="#0222B8"></path>
                </g>
            </g>
        </g>
    </g>
</svg>
