<?xml version="1.0" encoding="UTF-8"?>
<svg width="260px" height="363px" viewBox="0 0 260 363" version="1.1" xmlns="http://www.w3.org/2000/svg" xmlns:xlink="http://www.w3.org/1999/xlink">
    <!-- Generator: sketchtool 59 (101010) - https://sketch.com -->
    <title>269DD94E-316B-4C27-BDA3-2BE257164955@1.00x</title>
    <desc>Created with sketchtool.</desc>
    <defs>
        <linearGradient x1="24.5527794%" y1="50%" x2="14.9033211%" y2="52.2801371%" id="linearGradient-1">
            <stop stop-color="#84B9FF" offset="0%"></stop>
            <stop stop-color="#79ADFF" offset="100%"></stop>
        </linearGradient>
        <linearGradient x1="42.4634862%" y1="65.8960451%" x2="48.4894013%" y2="88.3135634%" id="linearGradient-2">
            <stop stop-color="#568FFF" offset="0%"></stop>
            <stop stop-color="#4C7FF2" offset="100%"></stop>
        </linearGradient>
        <linearGradient x1="66.4917976%" y1="53.7522695%" x2="85.7533908%" y2="49.4420381%" id="linearGradient-3">
            <stop stop-color="#1556FF" offset="0%"></stop>
            <stop stop-color="#0C46F2" offset="100%"></stop>
        </linearGradient>
    </defs>
    <g id="Tile" stroke="none" stroke-width="1" fill="none" fill-rule="evenodd">
        <g id="Gyazo" transform="translate(-170.000000, -987.000000)">
            <g id="Gyazo-Logo1" transform="translate(170.000000, 987.000000)">
                <g id="Gyazo-circle" fill-rule="evenodd">
                    <ellipse id="Oval" fill="#FFFFFF" cx="129.864583" cy="130" rx="129.864583" ry="130"></ellipse>
                    <g id="G-Icon" transform="translate(52.000000, 52.000000)">
                        <path d="M156,0 L155.284949,0 L111.392823,0.000513604776 L25.3571608,0.000513604776 C11.3524015,0.00102720955 0,11.2787609 0,25.1907734 L0,77.4834437 L118.217603,18.7666049 L156,0 Z" id="Fill-1" fill="url(#linearGradient-1)"></path>
                        <path d="M0,130.781154 C0,144.709184 11.2777337,156 25.1902598,156 L77.4834437,156 L4.79307691,10.4801 C1.13197256,15.7527286 0,20.4012075 0,26.0787513 L0,130.781154 Z" id="Fill-7" fill="url(#linearGradient-2)"></path>
                        <path d="M130.674679,156 C144.661283,156 156,144.692958 156,130.744912 C156,130.744912 136.57587,88.0035974 126.863805,92.8460299 C88.0195788,112.213749 10.2409061,151.056289 10.2409061,151.056289 C14.4740134,154.227657 19.8254102,156 25.5275576,156 L130.674679,156 Z" id="Fill-9" fill="url(#linearGradient-3)"></path>
                        <path d="M112.092715,67.6688742 C112.46126,68.3824094 112.13132,67.7243143 112.328975,68.1185553 L151.1098,145.653073 C154.765998,140.86326 156,135.716005 156,130.046224 L156,67.6688742 L112.092715,67.6688742 Z" id="Fill-12" fill="#0222B8"></path>
                    </g>
                </g>
                <path d="M75.6094727,330.573242 L90.9987305,330.573242 L90.9987305,331.803418 C90.9987305,334.601479 90.6690788,337.077886 90.0097656,339.232715 C89.3665332,341.226735 88.2810949,343.092081 86.753418,344.828809 C83.2960439,348.720365 78.8980085,350.666113 73.5591797,350.666113 C68.3489974,350.666113 63.8866397,348.784687 60.1719727,345.021777 C56.4573056,341.242787 54.6,336.708067 54.6,331.41748 C54.6,326.014328 56.4894668,321.431366 60.268457,317.668457 C64.0474473,313.889467 68.6464898,312 74.0657227,312 C76.9763492,312 79.6939652,312.594981 82.2186523,313.784961 C84.6307738,314.974941 87.0026576,316.904609 89.334375,319.574023 L85.3302734,323.409277 C82.2749196,319.340833 78.552268,317.306641 74.162207,317.306641 C70.2224087,317.306641 66.9178519,318.665449 64.2484375,321.383105 C61.5790231,324.05252 60.2443359,327.397278 60.2443359,331.41748 C60.2443359,335.566329 61.7317885,338.98345 64.7067383,341.668945 C67.4887183,344.161471 70.5038249,345.407715 73.7521484,345.407715 C76.5180477,345.407715 79.0024955,344.475042 81.2055664,342.609668 C83.4086373,340.728213 84.6388008,338.476934 84.8960937,335.855762 L75.6094727,335.855762 L75.6094727,330.573242 Z M104.43418,345.600684 L93.8691406,326.472656 L100.164746,326.472656 L107.352832,339.980469 L114.058496,326.472656 L120.185254,326.472656 L101.467285,362.750781 L95.2681641,362.750781 L104.43418,345.600684 Z M141.194727,326.472656 L146.646094,326.472656 L146.646094,349.966602 L141.194727,349.966602 L141.194727,347.50625 C138.959494,349.596755 136.555449,350.641992 133.98252,350.641992 C130.734196,350.641992 128.048741,349.468111 125.926074,347.120312 C123.819488,344.724272 122.766211,341.733286 122.766211,338.147266 C122.766211,334.625568 123.819488,331.690865 125.926074,329.343066 C128.03266,326.995268 130.669873,325.821387 133.837793,325.821387 C136.571531,325.821387 139.023817,326.947027 141.194727,329.19834 L141.194727,326.472656 Z M128.314062,338.147266 C128.314062,340.398579 128.917084,342.231764 130.123145,343.646875 C131.361367,345.078067 132.921182,345.793652 134.802637,345.793652 C136.812738,345.793652 138.436875,345.102188 139.675098,343.719238 C140.91332,342.288046 141.532422,340.470942 141.532422,338.267871 C141.532422,336.0648 140.91332,334.247696 139.675098,332.816504 C138.436875,331.417473 136.828818,330.717969 134.850879,330.717969 C132.985505,330.717969 131.42569,331.425514 130.171387,332.840625 C128.933164,334.271817 128.314062,336.04068 128.314062,338.147266 Z M161.287598,344.85293 L175.253711,344.85293 L175.253711,349.966602 L150.52959,349.966602 L165.75,331.538086 L153.761816,331.538086 L153.761816,326.472656 L176.483887,326.472656 L161.287598,344.85293 Z M191.752539,325.821387 C195.258156,325.821387 198.233061,327.019389 200.677344,329.41543 C203.089465,331.81147 204.295508,334.754214 204.295508,338.24375 C204.295508,341.765447 203.081425,344.716232 200.653223,347.096191 C198.20894,349.46007 195.209914,350.641992 191.656055,350.641992 C188.134357,350.641992 185.183573,349.43595 182.803613,347.023828 C180.423653,344.643868 179.233691,341.652883 179.233691,338.050781 C179.233691,334.65773 180.447774,331.771268 182.875977,329.391309 C185.304179,327.011349 188.263003,325.821387 191.752539,325.821387 Z M191.752539,330.717969 C189.678115,330.717969 187.997695,331.409433 186.71123,332.792383 C185.424766,334.175332 184.781543,335.960276 184.781543,338.147266 C184.781543,340.495064 185.408685,342.352369 186.662988,343.719238 C187.949453,345.102188 189.645953,345.793652 191.752539,345.793652 C193.875206,345.793652 195.571706,345.110228 196.84209,343.743359 C198.112474,342.376491 198.747656,340.551346 198.747656,338.267871 C198.747656,335.984396 198.112474,334.159252 196.84209,332.792383 C195.555625,331.409433 193.859125,330.717969 191.752539,330.717969 Z" id="Gyazo" fill="#262626" fill-rule="nonzero"></path>
            </g>
        </g>
    </g>
</svg>