<?xml version="1.0" encoding="UTF-8"?>
<svg width="110px" height="150px" viewBox="0 0 110 150" version="1.1" xmlns="http://www.w3.org/2000/svg" xmlns:xlink="http://www.w3.org/1999/xlink">
    <!-- Generator: sketchtool 59 (101010) - https://sketch.com -->
    <title>BB90E94B-BB96-4D50-ACF8-1B758CD7C717@1.00x</title>
    <desc>Created with sketchtool.</desc>
    <g id="Tile" stroke="none" stroke-width="1" fill="none" fill-rule="evenodd">
        <g id="Helpfeel" transform="translate(-545.000000, -205.000000)">
            <g id="H-Icon" transform="translate(545.000000, 205.000000)">
                <g id="Group-2">
                    <path d="M76,34.6960564 C76,29.0585408 78.7099002,23.9788587 83.5910049,20.1090399 C83.5910049,20.1090399 90.1192976,14.5314353 103.175883,3.37622604 L106.668565,0.455179767 C107.410669,-0.0588615915 108.152931,-0.137516971 108.895353,0.21921363 C109.637774,0.575944231 110.00599,1.18908352 110,2.0586315 L110,7.44327086 C109.996442,101.084671 109.996442,147.905371 110,147.905371 C109.994663,150.31527 107.569319,150.362983 106.597283,149.458448 C106.597283,149.458448 98.2204722,142.291481 81.4668515,127.957545 C77.8222838,124.095188 76,119.761193 76,114.955558 C76,107.747105 76,57.9653924 76,34.6960564 Z" id="Path-2-Copy" fill="#FACE43" transform="translate(93.000000, 75.000000) scale(-1, 1) translate(-93.000000, -75.000000) "></path>
                    <path d="M34.0002661,86 C33.9806957,70.1494011 48.8864397,64 54.561831,64 C54.561831,64 95.9568636,64 94.0565201,64 C95.3243595,64 96.9340879,65.8108755 95.3243595,67.4865256 C95.3243595,67.4865256 88.8829063,73.6576837 76,86 C47.9983058,86 33.9983945,86 34.0002661,86 Z" id="Path-3" fill="#B54A00"></path>
                    <path d="M0,34.6960564 C0,29.0585408 2.70990015,23.9788587 7.59100494,20.1090399 C7.59100494,20.1090399 14.1192976,14.5314353 27.1758829,3.37622604 L30.6685654,0.455179767 C31.4106687,-0.0588615915 32.1529312,-0.137516971 32.8953526,0.21921363 C33.6377741,0.575944231 34.0059899,1.18908352 34,2.0586315 L34,7.44327086 C33.9964423,101.084671 33.9964423,147.905371 34,147.905371 C33.9946634,150.31527 31.569319,150.362983 30.5972826,149.458448 C30.5972826,149.458448 22.2204722,142.291481 5.4668515,127.957545 C1.82228383,124.095188 0,119.761193 0,114.955558 C0,107.747105 0,57.9653924 0,34.6960564 Z" id="Path-2" fill="#F96600"></path>
                </g>
            </g>
        </g>
    </g>
</svg>