<?xml version="1.0" encoding="UTF-8"?>
<svg width="260px" height="367px" viewBox="0 0 260 367" version="1.1" xmlns="http://www.w3.org/2000/svg" xmlns:xlink="http://www.w3.org/1999/xlink">
    <!-- Generator: sketchtool 59 (101010) - https://sketch.com -->
    <title>34A2BCA7-59D3-4696-989B-28CB138541DF@1.00x</title>
    <desc>Created with sketchtool.</desc>
    <g id="Tile" stroke="none" stroke-width="1" fill="none" fill-rule="evenodd">
        <g id="Helpfeel" transform="translate(-170.000000, -987.000000)">
            <g id="Helpfeel-Logo1" transform="translate(170.000000, 987.000000)">
                <g id="Helpfeel-circle" transform="translate(0.000000, 0.000000)" fill-rule="evenodd">
                    <ellipse id="Oval" fill="#FFFFFF" cx="129.864583" cy="130" rx="129.864583" ry="130"></ellipse>
                    <g id="Group-2" stroke-width="1" transform="translate(67.826087, 45.217391)">
                        <path d="M85.9130435,39.221629 C85.9130435,32.8487852 88.9764089,27.1065359 94.4941795,22.7319582 C94.4941795,22.7319582 101.873989,16.4268399 116.633607,3.81660335 L120.581857,0.514551041 C121.420756,-0.0665391904 122.259835,-0.155453967 123.099094,0.247806712 C123.938353,0.651067391 124.354597,1.34418137 124.347826,2.32714865 L124.347826,8.41413227 C124.343804,114.269628 124.343804,167.197376 124.347826,167.197376 C124.341793,169.921609 121.6001,169.975546 120.501276,168.953029 C120.501276,168.953029 111.031838,160.851239 92.0929626,144.647659 C87.9730165,140.281517 85.9130435,135.382218 85.9130435,129.949761 C85.9130435,121.801076 85.9130435,65.5260957 85.9130435,39.221629 Z" id="Path-2-Copy" fill="#FACE43" transform="translate(105.130435, 84.782609) scale(-1, 1) translate(-105.130435, -84.782609) "></path>
                        <path d="M38.4350835,97.2173913 C38.4129604,79.299323 55.2629319,72.3478261 61.6785916,72.3478261 C61.6785916,72.3478261 108.472976,72.3478261 106.324762,72.3478261 C107.757972,72.3478261 109.577665,74.3949027 107.757972,76.2891159 C107.757972,76.2891159 100.476329,83.2652077 85.9130435,97.2173913 C54.2589543,97.2173913 38.4329677,97.2173913 38.4350835,97.2173913 Z" id="Path-3" fill="#B54A00"></path>
                        <path d="M0,39.221629 C0,32.8487852 3.06336539,27.1065359 8.58113602,22.7319582 C8.58113602,22.7319582 15.9609451,16.4268399 30.7205633,3.81660335 L34.6688131,0.514551041 C35.5077125,-0.0665391904 36.3467917,-0.155453967 37.1860508,0.247806712 C38.0253099,0.651067391 38.4415538,1.34418137 38.4347826,2.32714865 L38.4347826,8.41413227 C38.4307608,114.269628 38.4307608,167.197376 38.4347826,167.197376 C38.4287499,169.921609 35.6870563,169.975546 34.5882325,168.953029 C34.5882325,168.953029 25.1187947,160.851239 6.17991908,144.647659 C2.05997303,140.281517 0,135.382218 0,129.949761 C0,121.801076 0,65.5260957 0,39.221629 Z" id="Path-2" fill="#F96600"></path>
                    </g>
                </g>
                <path d="M45.9202148,330.717969 L61.9848633,330.717969 L61.9848633,316.148828 L67.6050781,316.148828 L67.6050781,353.391797 L61.9848633,353.391797 L61.9848633,336.000488 L45.9202148,336.000488 L45.9202148,353.391797 L40.3,353.391797 L40.3,316.148828 L45.9202148,316.148828 L45.9202148,330.717969 Z M96.8880859,342.923242 L80.0515625,342.923242 C80.1962898,344.852939 80.823432,346.388634 81.9330078,347.530371 C83.0425837,348.656028 84.465714,349.218848 86.2024414,349.218848 C87.5532294,349.218848 88.6708289,348.897236 89.5552734,348.254004 C90.4236372,347.610772 91.4125921,346.420809 92.522168,344.684082 L97.1051758,347.240918 C96.3976202,348.446979 95.6498737,349.480155 94.8619141,350.340479 C94.0739544,351.200802 93.2297246,351.908347 92.3291992,352.463135 C91.4286739,353.017923 90.4557995,353.423957 89.4105469,353.68125 C88.3652943,353.938543 87.2316142,354.067188 86.0094727,354.067188 C82.5038562,354.067188 79.6897567,352.941548 77.5670898,350.690234 C75.444423,348.42284 74.3831055,345.415774 74.3831055,341.668945 C74.3831055,337.954278 75.4122618,334.947212 77.4706055,332.647656 C79.5450299,330.380262 82.2948071,329.246582 85.7200195,329.246582 C89.1773936,329.246582 91.9110902,330.348101 93.9211914,332.551172 C95.9152118,334.738162 96.912207,337.769349 96.912207,341.644824 L96.8880859,342.923242 Z M91.3161133,338.484961 C90.5603152,335.590415 88.7351707,334.143164 85.840625,334.143164 C85.1813118,334.143164 84.5622099,334.243668 83.9833008,334.444678 C83.4043916,334.645688 82.877753,334.935138 82.4033691,335.313037 C81.9289853,335.690936 81.5229509,336.145212 81.1852539,336.675879 C80.8475569,337.206546 80.5902678,337.809567 80.4133789,338.484961 L91.3161133,338.484961 Z M108.249121,312.65127 L108.249121,353.391797 L102.821875,353.391797 L102.821875,312.65127 L108.249121,312.65127 Z M120.550879,366.175977 L115.123633,366.175977 L115.123633,329.897852 L120.550879,329.897852 L120.550879,332.454688 C122.689627,330.31594 125.117792,329.246582 127.835449,329.246582 C131.067692,329.246582 133.729026,330.436544 135.819531,332.816504 C137.942198,335.180383 139.003516,338.163328 139.003516,341.76543 C139.003516,345.287127 137.950238,348.221831 135.843652,350.569629 C133.753147,352.901346 131.115934,354.067188 127.931934,354.067188 C125.182115,354.067188 122.721788,352.965669 120.550879,350.762598 L120.550879,366.175977 Z M133.455664,341.789551 C133.455664,339.538237 132.844602,337.705053 131.622461,336.289941 C130.384239,334.858749 128.824423,334.143164 126.942969,334.143164 C124.948948,334.143164 123.332851,334.834629 122.094629,336.217578 C120.856407,337.600528 120.237305,339.417632 120.237305,341.668945 C120.237305,343.872016 120.856407,345.68912 122.094629,347.120313 C123.31677,348.519343 124.924827,349.218848 126.918848,349.218848 C128.800302,349.218848 130.352077,348.511303 131.574219,347.096191 C132.828522,345.68108 133.455664,343.912218 133.455664,341.789551 Z M150.364551,334.963281 L150.364551,353.391797 L144.913184,353.391797 L144.913184,334.963281 L142.983496,334.963281 L142.983496,329.897852 L144.913184,329.897852 L144.913184,320.82832 C144.913184,317.869451 145.427762,315.778977 146.456934,314.556836 C147.872045,312.85227 149.930358,312 152.631934,312 C153.596782,312 154.810865,312.28141 156.274219,312.844238 L156.274219,318.39209 L155.719434,318.102637 C154.545534,317.507647 153.5807,317.210156 152.824902,317.210156 C151.860054,317.210156 151.208791,317.555888 150.871094,318.247363 C150.533397,318.922757 150.364551,320.225283 150.364551,322.15498 L150.364551,329.897852 L156.274219,329.897852 L156.274219,334.963281 L150.364551,334.963281 Z M180.805371,342.923242 L163.968848,342.923242 C164.113575,344.852939 164.740717,346.388634 165.850293,347.530371 C166.959869,348.656028 168.382999,349.218848 170.119727,349.218848 C171.470515,349.218848 172.588114,348.897236 173.472559,348.254004 C174.340922,347.610772 175.329877,346.420809 176.439453,344.684082 L181.022461,347.240918 C180.314905,348.446979 179.567159,349.480155 178.779199,350.340479 C177.99124,351.200802 177.14701,351.908347 176.246484,352.463135 C175.345959,353.017923 174.373085,353.423957 173.327832,353.68125 C172.282579,353.938543 171.148899,354.067188 169.926758,354.067188 C166.421141,354.067188 163.607042,352.941548 161.484375,350.690234 C159.361708,348.42284 158.300391,345.415774 158.300391,341.668945 C158.300391,337.954278 159.329547,334.947212 161.387891,332.647656 C163.462315,330.380262 166.212092,329.246582 169.637305,329.246582 C173.094679,329.246582 175.828375,330.348101 177.838477,332.551172 C179.832497,334.738162 180.829492,337.769349 180.829492,341.644824 L180.805371,342.923242 Z M175.233398,338.484961 C174.4776,335.590415 172.652456,334.143164 169.75791,334.143164 C169.098597,334.143164 168.479495,334.243668 167.900586,334.444678 C167.321677,334.645688 166.795038,334.935138 166.320654,335.313037 C165.84627,335.690936 165.440236,336.145212 165.102539,336.675879 C164.764842,337.206546 164.507553,337.809567 164.330664,338.484961 L175.233398,338.484961 Z M208.13457,342.923242 L191.298047,342.923242 C191.442774,344.852939 192.069916,346.388634 193.179492,347.530371 C194.289068,348.656028 195.712198,349.218848 197.448926,349.218848 C198.799714,349.218848 199.917313,348.897236 200.801758,348.254004 C201.670122,347.610772 202.659076,346.420809 203.768652,344.684082 L208.35166,347.240918 C207.644105,348.446979 206.896358,349.480155 206.108398,350.340479 C205.320439,351.200802 204.476209,351.908347 203.575684,352.463135 C202.675158,353.017923 201.702284,353.423957 200.657031,353.68125 C199.611779,353.938543 198.478099,354.067188 197.255957,354.067188 C193.750341,354.067188 190.936241,352.941548 188.813574,350.690234 C186.690907,348.42284 185.62959,345.415774 185.62959,341.668945 C185.62959,337.954278 186.658746,334.947212 188.71709,332.647656 C190.791514,330.380262 193.541291,329.246582 196.966504,329.246582 C200.423878,329.246582 203.157575,330.348101 205.167676,332.551172 C207.161696,334.738162 208.158691,337.769349 208.158691,341.644824 L208.13457,342.923242 Z M202.562598,338.484961 C201.8068,335.590415 199.981655,334.143164 197.087109,334.143164 C196.427796,334.143164 195.808694,334.243668 195.229785,334.444678 C194.650876,334.645688 194.124237,334.935138 193.649854,335.313037 C193.17547,335.690936 192.769435,336.145212 192.431738,336.675879 C192.094041,337.206546 191.836752,337.809567 191.659863,338.484961 L202.562598,338.484961 Z M219.495605,312.65127 L219.495605,353.391797 L214.068359,353.391797 L214.068359,312.65127 L219.495605,312.65127 Z" id="Helpfeel" fill="#262626" fill-rule="nonzero"></path>
            </g>
        </g>
    </g>
</svg>