<?xml version="1.0" encoding="UTF-8"?>
<svg width="138px" height="42px" viewBox="0 0 138 42" version="1.1" xmlns="http://www.w3.org/2000/svg" xmlns:xlink="http://www.w3.org/1999/xlink">
    <!-- Generator: sketchtool 59 (101010) - https://sketch.com -->
    <title>D9F6305B-81FD-4A00-9643-0E86D6265EC3@1.00x</title>
    <desc>Created with sketchtool.</desc>
    <g id="Tile" stroke="none" stroke-width="1" fill="none" fill-rule="evenodd">
        <g id="Helpfeel" transform="translate(-711.000000, -692.000000)" fill="#262626" fill-rule="nonzero">
            <g id="Helpfeel-text" transform="translate(711.000000, 692.000000)">
                <path d="M4.32324219,14.3984375 L16.6806641,14.3984375 L16.6806641,3.19140625 L21.0039062,3.19140625 L21.0039062,31.8398438 L16.6806641,31.8398438 L16.6806641,18.4619141 L4.32324219,18.4619141 L4.32324219,31.8398438 L0,31.8398438 L0,3.19140625 L4.32324219,3.19140625 L4.32324219,14.3984375 Z M43.5292969,23.7871094 L30.578125,23.7871094 C30.6894537,25.2714918 31.1718707,26.4527951 32.0253906,27.3310547 C32.8789105,28.1969444 33.9736261,28.6298828 35.3095703,28.6298828 C36.348638,28.6298828 37.2083299,28.3824895 37.8886719,27.8876953 C38.556644,27.3929012 39.3173785,26.4775457 40.1708984,25.1416016 L43.6962891,27.1083984 C43.1520155,28.0361375 42.5768259,28.8308886 41.9707031,29.4926758 C41.3645803,30.1544629 40.7151727,30.6987283 40.0224609,31.1254883 C39.3297491,31.5522482 38.5813842,31.8645823 37.7773438,32.0625 C36.9733033,32.2604177 36.1012417,32.359375 35.1611328,32.359375 C32.4645047,32.359375 30.2998129,31.4934982 28.6669922,29.7617188 C27.0341715,28.0175694 26.2177734,25.7044415 26.2177734,22.8222656 C26.2177734,19.9648295 27.0094322,17.6517016 28.5927734,15.8828125 C30.1884845,14.1386632 32.3036978,13.2666016 34.9384766,13.2666016 C37.5979951,13.2666016 39.7008386,14.1139238 41.2470703,15.8085938 C42.7809321,17.4908938 43.5478516,19.8225762 43.5478516,22.8037109 L43.5292969,23.7871094 Z M39.2431641,20.3730469 C38.6617809,18.1464732 37.2578236,17.0332031 35.03125,17.0332031 C34.524086,17.0332031 34.0478538,17.1105135 33.6025391,17.2651367 C33.1572243,17.4197599 32.7521177,17.6424139 32.387207,17.9331055 C32.0222964,18.223797 31.7099622,18.5732401 31.4501953,18.9814453 C31.1904284,19.3896505 30.9925137,19.853513 30.8564453,20.3730469 L39.2431641,20.3730469 Z M52.2685547,0.500976562 L52.2685547,31.8398438 L48.09375,31.8398438 L48.09375,0.500976562 L52.2685547,0.500976562 Z M61.7314453,41.6738281 L57.5566406,41.6738281 L57.5566406,13.7675781 L61.7314453,13.7675781 L61.7314453,15.734375 C63.3766358,14.0891845 65.2444557,13.2666016 67.3349609,13.2666016 C69.8213015,13.2666016 71.8684815,14.181957 73.4765625,16.0126953 C75.1093832,17.8310638 75.9257812,20.1256372 75.9257812,22.8964844 C75.9257812,25.6054823 75.115568,27.8629467 73.4951172,29.6689453 C71.8870362,31.4625741 69.8584107,32.359375 67.4091797,32.359375 C65.2939347,32.359375 63.4013755,31.5120527 61.7314453,29.8173828 L61.7314453,41.6738281 Z M71.6582031,22.9150391 C71.6582031,21.1832596 71.1881557,19.7731174 70.2480469,18.6845703 C69.2955682,17.5836533 68.0957104,17.0332031 66.6484375,17.0332031 C65.1145757,17.0332031 63.871424,17.5650988 62.9189453,18.6289062 C61.9664666,19.6927137 61.4902344,21.0904861 61.4902344,22.8222656 C61.4902344,24.5169356 61.9664666,25.914708 62.9189453,27.015625 C63.8590542,28.0918023 65.096021,28.6298828 66.6298828,28.6298828 C68.0771557,28.6298828 69.2708286,28.0856174 70.2109375,26.9970703 C71.1757861,25.9085232 71.6582031,24.5478597 71.6582031,22.9150391 Z M84.6650391,17.6640625 L84.6650391,31.8398438 L80.4716797,31.8398438 L80.4716797,17.6640625 L78.9873047,17.6640625 L78.9873047,13.7675781 L80.4716797,13.7675781 L80.4716797,6.79101562 C80.4716797,4.51496258 80.8675091,2.90690574 81.6591797,1.96679688 C82.7477268,0.655592402 84.3310443,0 86.4091797,0 C87.1513709,0 88.0852808,0.216469189 89.2109375,0.649414062 L89.2109375,4.91699219 L88.7841797,4.69433594 C87.8811804,4.23665136 87.1390003,4.0078125 86.5576172,4.0078125 C85.815426,4.0078125 85.3144544,4.27376036 85.0546875,4.80566406 C84.7949206,5.32519791 84.6650391,6.32714102 84.6650391,7.81152344 L84.6650391,13.7675781 L89.2109375,13.7675781 L89.2109375,17.6640625 L84.6650391,17.6640625 Z M108.081055,23.7871094 L95.1298828,23.7871094 C95.2412115,25.2714918 95.7236285,26.4527951 96.5771484,27.3310547 C97.4306683,28.1969444 98.5253839,28.6298828 99.8613281,28.6298828 C100.900396,28.6298828 101.760088,28.3824895 102.44043,27.8876953 C103.108402,27.3929012 103.869136,26.4775457 104.722656,25.1416016 L108.248047,27.1083984 C107.703773,28.0361375 107.128584,28.8308886 106.522461,29.4926758 C105.916338,30.1544629 105.266931,30.6987283 104.574219,31.1254883 C103.881507,31.5522482 103.133142,31.8645823 102.329102,32.0625 C101.525061,32.2604177 100.652999,32.359375 99.7128906,32.359375 C97.0162626,32.359375 94.8515707,31.4934982 93.21875,29.7617188 C91.5859293,28.0175694 90.7695312,25.7044415 90.7695312,22.8222656 C90.7695312,19.9648295 91.56119,17.6517016 93.1445312,15.8828125 C94.7402424,14.1386632 96.8554556,13.2666016 99.4902344,13.2666016 C102.149753,13.2666016 104.252596,14.1139238 105.798828,15.8085938 C107.33269,17.4908938 108.099609,19.8225762 108.099609,22.8037109 L108.081055,23.7871094 Z M103.794922,20.3730469 C103.213539,18.1464732 101.809581,17.0332031 99.5830078,17.0332031 C99.0758438,17.0332031 98.5996116,17.1105135 98.1542969,17.2651367 C97.7089821,17.4197599 97.3038755,17.6424139 96.9389648,17.9331055 C96.5740542,18.223797 96.26172,18.5732401 96.0019531,18.9814453 C95.7421862,19.3896505 95.5442715,19.853513 95.4082031,20.3730469 L103.794922,20.3730469 Z M129.103516,23.7871094 L116.152344,23.7871094 C116.263672,25.2714918 116.746089,26.4527951 117.599609,27.3310547 C118.453129,28.1969444 119.547845,28.6298828 120.883789,28.6298828 C121.922857,28.6298828 122.782549,28.3824895 123.462891,27.8876953 C124.130863,27.3929012 124.891597,26.4775457 125.745117,25.1416016 L129.270508,27.1083984 C128.726234,28.0361375 128.151045,28.8308886 127.544922,29.4926758 C126.938799,30.1544629 126.289391,30.6987283 125.59668,31.1254883 C124.903968,31.5522482 124.155603,31.8645823 123.351562,32.0625 C122.547522,32.2604177 121.67546,32.359375 120.735352,32.359375 C118.038723,32.359375 115.874032,31.4934982 114.241211,29.7617188 C112.60839,28.0175694 111.791992,25.7044415 111.791992,22.8222656 C111.791992,19.9648295 112.583651,17.6517016 114.166992,15.8828125 C115.762703,14.1386632 117.877917,13.2666016 120.512695,13.2666016 C123.172214,13.2666016 125.275057,14.1139238 126.821289,15.8085938 C128.355151,17.4908938 129.12207,19.8225762 129.12207,22.8037109 L129.103516,23.7871094 Z M124.817383,20.3730469 C124.236,18.1464732 122.832042,17.0332031 120.605469,17.0332031 C120.098305,17.0332031 119.622073,17.1105135 119.176758,17.2651367 C118.731443,17.4197599 118.326336,17.6424139 117.961426,17.9331055 C117.596515,18.223797 117.284181,18.5732401 117.024414,18.9814453 C116.764647,19.3896505 116.566732,19.853513 116.430664,20.3730469 L124.817383,20.3730469 Z M137.842773,0.500976562 L137.842773,31.8398438 L133.667969,31.8398438 L133.667969,0.500976562 L137.842773,0.500976562 Z" id="Helpfeel"></path>
            </g>
        </g>
    </g>
</svg>