<?xml version="1.0" encoding="UTF-8"?>
<svg width="651px" height="260px" viewBox="0 0 651 260" version="1.1" xmlns="http://www.w3.org/2000/svg" xmlns:xlink="http://www.w3.org/1999/xlink">
    <!-- Generator: sketchtool 59 (101010) - https://sketch.com -->
    <title>5B1116A6-4228-477E-96D6-56DB94B98D69@1.00x</title>
    <desc>Created with sketchtool.</desc>
    <g id="Tile" stroke="none" stroke-width="1" fill="none" fill-rule="evenodd">
        <g id="Helpfeel" transform="translate(-215.000000, -1553.000000)">
            <g id="Helpfeel-Logo2" transform="translate(215.000000, 1553.000000)">
                <g id="Helpfeel-circle" fill-rule="evenodd">
                    <ellipse id="Oval" fill="#FFFFFF" cx="129.864583" cy="130" rx="129.864583" ry="130"></ellipse>
                    <g id="Group-2" stroke-width="1" transform="translate(67.826087, 45.217391)">
                        <path d="M85.9130435,39.221629 C85.9130435,32.8487852 88.9764089,27.1065359 94.4941795,22.7319582 C94.4941795,22.7319582 101.873989,16.4268399 116.633607,3.81660335 L120.581857,0.514551041 C121.420756,-0.0665391904 122.259835,-0.155453967 123.099094,0.247806712 C123.938353,0.651067391 124.354597,1.34418137 124.347826,2.32714865 L124.347826,8.41413227 C124.343804,114.269628 124.343804,167.197376 124.347826,167.197376 C124.341793,169.921609 121.6001,169.975546 120.501276,168.953029 C120.501276,168.953029 111.031838,160.851239 92.0929626,144.647659 C87.9730165,140.281517 85.9130435,135.382218 85.9130435,129.949761 C85.9130435,121.801076 85.9130435,65.5260957 85.9130435,39.221629 Z" id="Path-2-Copy" fill="#FACE43" transform="translate(105.130435, 84.782609) scale(-1, 1) translate(-105.130435, -84.782609) "></path>
                        <path d="M38.4350835,97.2173913 C38.4129604,79.299323 55.2629319,72.3478261 61.6785916,72.3478261 C61.6785916,72.3478261 108.472976,72.3478261 106.324762,72.3478261 C107.757972,72.3478261 109.577665,74.3949027 107.757972,76.2891159 C107.757972,76.2891159 100.476329,83.2652077 85.9130435,97.2173913 C54.2589543,97.2173913 38.4329677,97.2173913 38.4350835,97.2173913 Z" id="Path-3" fill="#B54A00"></path>
                        <path d="M0,39.221629 C0,32.8487852 3.06336539,27.1065359 8.58113602,22.7319582 C8.58113602,22.7319582 15.9609451,16.4268399 30.7205633,3.81660335 L34.6688131,0.514551041 C35.5077125,-0.0665391904 36.3467917,-0.155453967 37.1860508,0.247806712 C38.0253099,0.651067391 38.4415538,1.34418137 38.4347826,2.32714865 L38.4347826,8.41413227 C38.4307608,114.269628 38.4307608,167.197376 38.4347826,167.197376 C38.4287499,169.921609 35.6870563,169.975546 34.5882325,168.953029 C34.5882325,168.953029 25.1187947,160.851239 6.17991908,144.647659 C2.05997303,140.281517 0,135.382218 0,129.949761 C0,121.801076 0,65.5260957 0,39.221629 Z" id="Path-2" fill="#F96600"></path>
                    </g>
                </g>
                <path d="M330.373998,121.550312 L360.026714,121.550312 L360.026714,94.6580588 L370.400712,94.6580588 L370.400712,163.402493 L360.026714,163.402493 L360.026714,131.30098 L330.373998,131.30098 L330.373998,163.402493 L320,163.402493 L320,94.6580588 L330.373998,94.6580588 L330.373998,121.550312 Z M424.45236,144.079252 L393.374889,144.079252 C393.642032,147.641158 394.799634,150.475798 396.847729,152.583259 C398.895825,154.661037 401.522691,155.699911 404.728406,155.699911 C407.22174,155.699911 409.284646,155.106269 410.917186,153.918967 C412.520044,152.731665 414.345493,150.53519 416.393589,147.329475 L424.853072,152.048976 C423.54704,154.275167 422.166822,156.182242 420.712378,157.770258 C419.257933,159.358274 417.699622,160.664287 416.0374,161.688335 C414.375177,162.712383 412.57941,163.461856 410.650045,163.936776 C408.720679,164.411697 406.628091,164.649154 404.372217,164.649154 C397.901422,164.649154 392.707054,162.571407 388.788958,158.41585 C384.870862,154.230611 382.911843,148.680058 382.911843,141.764025 C382.911843,134.907357 384.811498,129.356804 388.610864,125.112199 C392.439912,120.92696 397.515552,118.834372 403.837934,118.834372 C410.219682,118.834372 415.265639,120.867596 418.975957,124.934105 C422.656593,128.970931 424.496883,134.566008 424.496883,141.719501 L424.45236,144.079252 Z M414.167409,135.88691 C412.772329,130.544052 409.403411,127.872663 404.060552,127.872663 C402.843568,127.872663 401.700807,128.058176 400.632235,128.429207 C399.563663,128.800239 398.591575,129.334517 397.715939,130.032057 C396.840304,130.729597 396.090831,131.568116 395.467498,132.54764 C394.844164,133.527164 394.369251,134.640243 394.042743,135.88691 L414.167409,135.88691 Z M445.422974,88.2021371 L445.422974,163.402493 L435.405165,163.402493 L435.405165,88.2021371 L445.422974,88.2021371 Z M468.130009,187 L458.112199,187 L458.112199,120.036509 L468.130009,120.036509 L468.130009,124.756011 C472.077788,120.808232 476.559785,118.834372 481.576135,118.834372 C487.542327,118.834372 492.454715,121.030848 496.313446,125.423865 C500.231542,129.787199 502.190561,135.293229 502.190561,141.942119 C502.190561,148.442597 500.246383,153.859581 496.35797,158.193232 C492.499239,162.497202 487.631374,164.649154 481.75423,164.649154 C476.678514,164.649154 472.137153,162.61593 468.130009,158.549421 L468.130009,187 Z M491.950134,141.986643 C491.950134,137.831086 490.822214,134.447327 488.56634,131.835263 C486.280784,129.193516 483.40162,127.872663 479.928762,127.872663 C476.248126,127.872663 473.265075,129.148993 470.979519,131.701692 C468.693963,134.254391 467.551202,137.608468 467.551202,141.764025 C467.551202,145.830534 468.693963,149.184611 470.979519,151.826358 C473.235393,154.40874 476.203603,155.699911 479.884239,155.699911 C483.357097,155.699911 486.221419,154.393898 488.477293,151.781834 C490.792532,149.16977 491.950134,145.904739 491.950134,141.986643 Z M523.161175,129.386465 L523.161175,163.402493 L513.098842,163.402493 L513.098842,129.386465 L509.536955,129.386465 L509.536955,120.036509 L513.098842,120.036509 L513.098842,103.295637 C513.098842,97.8340481 514.04867,93.9753749 515.948353,91.7195013 C518.560417,88.5731514 522.359726,87 527.346394,87 C529.127346,87 531.368345,87.5194368 534.069457,88.5583259 L534.069457,98.7987533 L533.045414,98.2644702 C530.878588,97.1662159 529.097662,96.6170971 527.702582,96.6170971 C525.92163,96.6170971 524.719504,97.2552622 524.096171,98.5316118 C523.472837,99.7782787 523.161175,102.182529 523.161175,105.744435 L523.161175,120.036509 L534.069457,120.036509 L534.069457,129.386465 L523.161175,129.386465 Z M579.349955,144.079252 L548.272484,144.079252 C548.539627,147.641158 549.697229,150.475798 551.745325,152.583259 C553.793421,154.661037 556.420287,155.699911 559.626002,155.699911 C562.119336,155.699911 564.182242,155.106269 565.814782,153.918967 C567.417639,152.731665 569.243089,150.53519 571.291184,147.329475 L579.750668,152.048976 C578.444636,154.275167 577.064418,156.182242 575.609973,157.770258 C574.155528,159.358274 572.597218,160.664287 570.934996,161.688335 C569.272773,162.712383 567.477006,163.461856 565.54764,163.936776 C563.618275,164.411697 561.525687,164.649154 559.269813,164.649154 C552.799018,164.649154 547.60465,162.571407 543.686554,158.41585 C539.768458,154.230611 537.809439,148.680058 537.809439,141.764025 C537.809439,134.907357 539.709093,129.356804 543.508459,125.112199 C547.337508,120.92696 552.413147,118.834372 558.73553,118.834372 C565.117277,118.834372 570.163235,120.867596 573.873553,124.934105 C577.554189,128.970931 579.394479,134.566008 579.394479,141.719501 L579.349955,144.079252 Z M569.065004,135.88691 C567.669925,130.544052 564.301006,127.872663 558.958148,127.872663 C557.741163,127.872663 556.598402,128.058176 555.529831,128.429207 C554.461259,128.800239 553.48917,129.334517 552.613535,130.032057 C551.7379,130.729597 550.988427,131.568116 550.365093,132.54764 C549.74176,133.527164 549.266846,134.640243 548.940338,135.88691 L569.065004,135.88691 Z M629.795191,144.079252 L598.71772,144.079252 C598.984863,147.641158 600.142465,150.475798 602.190561,152.583259 C604.238657,154.661037 606.865523,155.699911 610.071238,155.699911 C612.564572,155.699911 614.627478,155.106269 616.260018,153.918967 C617.862875,152.731665 619.688325,150.53519 621.73642,147.329475 L630.195904,152.048976 C628.889872,154.275167 627.509654,156.182242 626.055209,157.770258 C624.600764,159.358274 623.042454,160.664287 621.380232,161.688335 C619.718009,162.712383 617.922242,163.461856 615.992876,163.936776 C614.063511,164.411697 611.970923,164.649154 609.715049,164.649154 C603.244254,164.649154 598.049886,162.571407 594.13179,158.41585 C590.213694,154.230611 588.254675,148.680058 588.254675,141.764025 C588.254675,134.907357 590.154329,129.356804 593.953695,125.112199 C597.782744,120.92696 602.858383,118.834372 609.180766,118.834372 C615.562513,118.834372 620.608471,120.867596 624.318789,124.934105 C627.999425,128.970931 629.839715,134.566008 629.839715,141.719501 L629.795191,144.079252 Z M619.51024,135.88691 C618.115161,130.544052 614.746242,127.872663 609.403384,127.872663 C608.186399,127.872663 607.043638,128.058176 605.975067,128.429207 C604.906495,128.800239 603.934406,129.334517 603.058771,130.032057 C602.183136,130.729597 601.433663,131.568116 600.810329,132.54764 C600.186996,133.527164 599.712082,134.640243 599.385574,135.88691 L619.51024,135.88691 Z M650.765806,88.2021371 L650.765806,163.402493 L640.747996,163.402493 L640.747996,88.2021371 L650.765806,88.2021371 Z" id="Helpfeel" fill="#262626" fill-rule="nonzero"></path>
            </g>
        </g>
    </g>
</svg>