<?xml version="1.0" encoding="UTF-8"?>
<svg width="200px" height="200px" viewBox="0 0 200 200" version="1.1" xmlns="http://www.w3.org/2000/svg" xmlns:xlink="http://www.w3.org/1999/xlink">
    <!-- Generator: sketchtool 59 (101010) - https://sketch.com -->
    <title>1A08DB9E-FCDE-4A66-B676-7EC9D545513C@1.00x</title>
    <desc>Created with sketchtool.</desc>
    <g id="Tile" stroke="none" stroke-width="1" fill="none" fill-rule="evenodd">
        <g id="Helpfeel" transform="translate(-250.000000, -613.000000)">
            <g id="Helpfeel-circle" transform="translate(250.000000, 613.000000)">
                <ellipse id="Oval" fill="#FFFFFF" cx="99.8958333" cy="100" rx="99.8958333" ry="100"></ellipse>
                <g id="Group-2" stroke-width="1" transform="translate(52.173913, 34.782609)">
                    <path d="M66.0869565,30.1704838 C66.0869565,25.2682963 68.4433914,20.8511815 72.6878304,17.4861217 C72.6878304,17.4861217 78.3646066,12.6360307 89.718159,2.93584873 L92.7552743,0.395808493 C93.4005815,-0.0511839926 94.0460271,-0.119579974 94.691611,0.190620548 C95.3371949,0.50082107 95.6573825,1.03398567 95.6521739,1.79011435 L95.6521739,6.47240944 C95.6490802,87.8997141 95.6490802,128.613366 95.6521739,128.613366 C95.6475334,130.70893 93.5385383,130.75042 92.6932892,129.963868 C92.6932892,129.963868 85.4091063,123.731722 70.8407404,111.26743 C67.6715512,107.908859 66.0869565,104.140167 66.0869565,99.9613545 C66.0869565,93.6931351 66.0869565,50.404689 66.0869565,30.1704838 Z" id="Path-2-Copy" fill="#FACE43" transform="translate(80.869565, 65.217391) scale(-1, 1) translate(-80.869565, -65.217391) "></path>
                    <path d="M29.5654488,74.7826087 C29.5484311,60.9994792 42.5099476,55.6521739 47.4450705,55.6521739 C47.4450705,55.6521739 83.440751,55.6521739 81.7882783,55.6521739 C82.8907474,55.6521739 84.2905112,57.2268482 82.8907474,58.6839353 C82.8907474,58.6839353 77.2894838,64.0501598 66.0869565,74.7826087 C41.7376572,74.7826087 29.5638213,74.7826087 29.5654488,74.7826087 Z" id="Path-3" fill="#B54A00"></path>
                    <path d="M0,30.1704838 C0,25.2682963 2.35643491,20.8511815 6.60087386,17.4861217 C6.60087386,17.4861217 12.2776501,12.6360307 23.6312025,2.93584873 L26.6683177,0.395808493 C27.313625,-0.0511839926 27.9590706,-0.119579974 28.6046545,0.190620548 C29.2502384,0.50082107 29.570426,1.03398567 29.5652174,1.79011435 L29.5652174,6.47240944 C29.5621237,87.8997141 29.5621237,128.613366 29.5652174,128.613366 C29.5605768,130.70893 27.4515817,130.75042 26.6063327,129.963868 C26.6063327,129.963868 19.3221498,123.731722 4.75378391,111.26743 C1.58459464,107.908859 0,104.140167 0,99.9613545 C0,93.6931351 0,50.404689 0,30.1704838 Z" id="Path-2" fill="#F96600"></path>
                </g>
            </g>
        </g>
    </g>
</svg>
