<?xml version="1.0" encoding="UTF-8"?>
<svg width="720px" height="260px" viewBox="0 0 720 260" version="1.1" xmlns="http://www.w3.org/2000/svg" xmlns:xlink="http://www.w3.org/1999/xlink">
    <!-- Generator: sketchtool 59 (101010) - https://sketch.com -->
    <title>10429663-5340-4D21-9F54-3DD7DF0EF8B8@1.00x</title>
    <desc>Created with sketchtool.</desc>
    <defs>
        <path d="M58.688891,1.21965773 L5.74653873,28.3168671 C2.57281302,29.9412587 -4.26325641e-14,34.1560019 -4.26325641e-14,37.7328083 L-4.26325641e-14,90.7426712 C-4.26325641e-14,94.3185605 2.56570807,98.5305844 5.74653873,100.158612 L60.9938816,128.435573 C62.8945961,129.408406 62.8904132,130.987821 60.9938816,131.958512 L5.74653873,160.235474 C2.57281302,161.859865 2.56570807,164.489887 5.74653873,166.117915 L58.688891,193.215124 C61.8626167,194.839517 67.0010862,194.843153 70.1818531,193.215124 L123.123142,166.117915 C126.296804,164.493524 128.869565,160.278781 128.869565,156.701974 L128.869565,103.692111 C128.869565,100.116222 126.303909,95.9041983 123.123142,94.2761703 L67.8769089,65.9992095 C65.9762325,65.0263766 65.9804152,63.446962 67.8769089,62.4762699 L123.123142,34.1993093 C126.296804,32.5749178 126.303909,29.9448952 123.123142,28.3168671 L70.1818531,1.21965773 C67.0081911,-0.404733822 61.8697217,-0.408370316 58.688891,1.21965773 Z" id="path-1"></path>
    </defs>
    <g id="Tile" stroke="none" stroke-width="1" fill="none" fill-rule="evenodd">
        <g id="Scrapbox" transform="translate(-205.000000, -1553.000000)">
            <g id="Scrapbox-Logo2" transform="translate(205.000000, 1553.000000)">
                <path d="M362.812078,102.899504 L354.294727,107.946823 C352.702411,105.182801 351.185226,103.380205 349.743128,102.538982 C348.240942,101.577583 346.303151,101.09689 343.929698,101.09689 C341.015458,101.09689 338.596975,101.92308 336.674178,103.575484 C334.75138,105.197845 333.789995,107.240787 333.789995,109.704371 C333.789995,113.099311 336.31363,115.833248 341.360973,117.906264 L348.301037,120.745381 C353.949255,123.028703 358.080203,125.815216 360.694006,129.105002 C363.307809,132.394789 364.614691,136.428097 364.614691,141.205047 C364.614691,147.604358 362.48162,152.891973 358.215412,157.068049 C353.919161,161.274169 348.586482,163.377197 342.217215,163.377197 C336.178429,163.377197 331.191247,161.589623 327.255521,158.014421 C323.379881,154.439219 320.961399,149.406973 320,142.91753 L330.635421,140.574132 C331.116121,144.660078 331.957332,147.484144 333.159081,149.046417 C335.322228,152.050789 338.476771,153.552952 342.622803,153.552952 C345.897568,153.552952 348.616483,152.456373 350.77963,150.263182 C352.942778,148.069991 354.024335,145.290989 354.024335,141.926093 C354.024335,140.574126 353.836565,139.334841 353.461018,138.208202 C353.085472,137.081563 352.499628,136.04507 351.70347,135.098693 C350.907312,134.152316 349.87833,133.26604 348.616494,132.439838 C347.354658,131.613636 345.852495,130.825 344.109959,130.073907 L337.395223,127.279856 C327.871366,123.253998 323.109509,117.365519 323.109509,109.614241 C323.109509,104.386635 325.107386,100.01534 329.1032,96.5002253 C333.099014,92.9550671 338.071174,91.1825146 344.019829,91.1825146 C352.0415,91.1825146 358.305521,95.0881388 362.812078,102.899504 Z M409.499775,120.114466 L409.499775,133.589004 C407.186409,130.764895 405.113424,128.827105 403.280757,127.775575 C401.478134,126.694001 399.360084,126.153222 396.926543,126.153222 C393.110992,126.153222 389.941428,127.490147 387.417756,130.164038 C384.894084,132.837928 383.632267,136.187752 383.632267,140.21361 C383.632267,144.329598 384.849019,147.709466 387.28256,150.353312 C389.746144,152.997159 392.885665,154.319063 396.701217,154.319063 C399.134758,154.319063 401.282851,153.793306 403.145561,152.741776 C404.948184,151.720289 407.066234,149.737434 409.499775,146.79315 L409.499775,160.177557 C405.383786,162.310661 401.267859,163.377197 397.15187,163.377197 C390.361991,163.377197 384.683814,161.184039 380.11717,156.797657 C375.550525,152.381231 373.267237,146.898335 373.267237,140.348806 C373.267237,133.799276 375.580569,128.271316 380.207301,123.764759 C384.834032,119.258202 390.512209,117.004957 397.242001,117.004957 C401.568296,117.004957 405.654179,118.04145 409.499775,120.114466 Z M419.32402,118.221721 L429.463722,118.221721 L429.463722,122.142406 C431.326433,120.189565 432.978812,118.85264 434.42091,118.131591 C435.893052,117.380498 437.635562,117.004957 439.64849,117.004957 C442.322381,117.004957 445.116404,117.876212 448.030644,119.618747 L443.388914,128.902208 C441.466116,127.520197 439.588412,126.829202 437.755746,126.829202 C432.227703,126.829202 429.463722,131.005216 429.463722,139.357368 L429.463722,162.115367 L419.32402,162.115367 L419.32402,118.221721 Z M486.200991,118.221721 L496.385759,118.221721 L496.385759,162.115367 L486.200991,162.115367 L486.200991,157.518702 C482.024915,161.424385 477.533447,163.377197 472.726453,163.377197 C466.657623,163.377197 461.640398,161.184039 457.674628,156.797657 C453.738902,152.321143 451.771068,146.733096 451.771068,140.033348 C451.771068,133.453775 453.738902,127.97088 457.674628,123.584498 C461.610355,119.198115 466.53745,117.004957 472.456061,117.004957 C477.563493,117.004957 482.14509,119.107986 486.200991,123.314105 L486.200991,118.221721 Z M462.136097,140.033348 C462.136097,144.239468 463.26272,147.6644 465.515998,150.308247 C467.829364,152.982137 470.743561,154.319063 474.258675,154.319063 C478.014139,154.319063 481.048509,153.027202 483.361875,150.443443 C485.675241,147.769553 486.831906,144.374664 486.831906,140.258675 C486.831906,136.142686 485.675241,132.747798 483.361875,130.073907 C481.048509,127.460104 478.044183,126.153222 474.348806,126.153222 C470.863735,126.153222 467.949539,127.475126 465.606129,130.118973 C463.292763,132.792863 462.136097,136.097622 462.136097,140.033348 Z M519.32402,186 L509.184317,186 L509.184317,118.221721 L519.32402,118.221721 L519.32402,122.998648 C523.319834,119.002834 527.856366,117.004957 532.933754,117.004957 C538.97254,117.004957 543.9447,119.228159 547.850383,123.674628 C551.816153,128.091054 553.799009,133.664079 553.799009,140.393871 C553.799009,146.973444 551.831175,152.45634 547.895448,156.842722 C543.989766,161.19906 539.062671,163.377197 533.114015,163.377197 C527.97654,163.377197 523.379921,161.319233 519.32402,157.203245 L519.32402,186 Z M543.433979,140.438936 C543.433979,136.232817 542.292335,132.807885 540.009013,130.164038 C537.695647,127.490147 534.781451,126.153222 531.266336,126.153222 C527.540916,126.153222 524.521568,127.445082 522.208202,130.028842 C519.894836,132.612601 518.73817,136.00749 518.73817,140.21361 C518.73817,144.329598 519.894836,147.724487 522.208202,150.398378 C524.491524,153.012181 527.49585,154.319063 531.221271,154.319063 C534.736385,154.319063 537.63556,152.997159 539.918882,150.353312 C542.262292,147.709466 543.433979,144.404707 543.433979,140.438936 Z M574.664263,86 L574.664263,123.314105 C578.720164,119.107986 583.316784,117.004957 588.454259,117.004957 C594.37287,117.004957 599.299965,119.213137 603.235692,123.629563 C607.171418,128.015945 609.139252,133.483819 609.139252,140.033348 C609.139252,146.793184 607.156397,152.381231 603.190626,156.797657 C599.2549,161.184039 594.28274,163.377197 588.273997,163.377197 C583.19661,163.377197 578.660077,161.424385 574.664263,157.518702 L574.664263,162.115367 L564.524561,162.115367 L564.524561,86 L574.664263,86 Z M598.774223,140.484002 C598.774223,136.277882 597.632579,132.85295 595.349256,130.209103 C593.03589,127.505169 590.136716,126.153222 586.651645,126.153222 C582.926224,126.153222 579.891855,127.460104 577.548445,130.073907 C575.235079,132.657667 574.078414,136.022512 574.078414,140.168544 C574.078414,144.434752 575.220058,147.844662 577.50338,150.398378 C579.786702,153.012181 582.791028,154.319063 586.516449,154.319063 C590.031563,154.319063 592.94576,153.012181 595.259126,150.398378 C597.602535,147.754531 598.774223,144.449772 598.774223,140.484002 Z M617.791798,139.853087 C617.791798,133.513863 620.060064,128.121098 624.596665,123.674628 C629.133266,119.228159 634.661226,117.004957 641.180712,117.004957 C647.730242,117.004957 653.288245,119.24318 657.85489,123.719694 C662.361447,128.196207 664.614691,133.694124 664.614691,140.21361 C664.614691,146.793183 662.346425,152.306122 657.809824,156.752591 C653.24318,161.169017 647.640111,163.377197 641.000451,163.377197 C634.420877,163.377197 628.907939,161.123952 624.461469,156.617395 C620.015,152.170926 617.791798,146.582879 617.791798,139.853087 Z M628.156827,140.033348 C628.156827,144.419731 629.328515,147.889727 631.671924,150.443443 C634.075421,153.027202 637.244986,154.319063 641.180712,154.319063 C645.146482,154.319063 648.316046,153.042224 650.6895,150.488508 C653.062953,147.934793 654.249662,144.524882 654.249662,140.258675 C654.249662,135.992468 653.062953,132.582557 650.6895,130.028842 C648.286003,127.445082 645.116438,126.153222 641.180712,126.153222 C637.305073,126.153222 634.165552,127.445082 631.762055,130.028842 C629.358558,132.612601 628.156827,135.947403 628.156827,140.033348 Z M688.949977,138.365931 L673.177107,118.221721 L685.254619,118.221721 L695.033799,131.020279 L704.99324,118.221721 L717.431275,118.221721 L701.207751,138.365931 L720,162.115367 L707.922488,162.115367 L695.033799,145.711582 L681.829653,162.115367 L669.436683,162.115367 L688.949977,138.365931 Z" id="Scrapbox" fill="#262626" fill-rule="nonzero"></path>
                <g id="Scrapbox-circle" fill-rule="evenodd">
                    <circle id="circle" fill="#FFFFFF" cx="130" cy="130" r="130"></circle>
                    <g id="Rectangle" stroke-width="1" transform="translate(65.565217, 32.782609)">
                        <mask id="mask-2" fill="white">
                            <use xlink:href="#path-1"></use>
                        </mask>
                        <use id="Mask" fill="#05EC40" xlink:href="#path-1"></use>
                        <polygon fill="#00B52E" mask="url(#mask-2)" points="64.4347826 1.91701745e-14 128.869565 1.91701745e-14 128.869565 194.434783 64.4347826 194.434783"></polygon>
                        <path d="M66.6956522,162.782609 L127.451163,131.753214 C129.344449,130.786263 129.340282,129.216285 127.451163,128.251322 L66.6956522,97.2173913 L66.6956522,162.782609 Z" id="Mask-Copy" fill="#004D3F" mask="url(#mask-2)" transform="translate(97.782609, 130.000000) scale(-1, 1) translate(-97.782609, -130.000000) "></path>
                        <path d="M0,96.0869565 L60.7555103,65.057561 C62.6487967,64.0906112 62.6446301,62.5206328 60.7555103,61.55567 L0,30.5217391 L0,96.0869565 Z" id="Mask" fill="#FCFF19" mask="url(#mask-2)"></path>
                    </g>
                </g>
            </g>
        </g>
    </g>
</svg>