<?xml version="1.0" encoding="UTF-8"?>
<svg width="165px" height="42px" viewBox="0 0 165 42" version="1.1" xmlns="http://www.w3.org/2000/svg" xmlns:xlink="http://www.w3.org/1999/xlink">
    <!-- Generator: sketchtool 59 (101010) - https://sketch.com -->
    <title>28FB51F9-D18D-42B9-B185-903C1F653713@1.00x</title>
    <desc>Created with sketchtool.</desc>
    <g id="Tile" stroke="none" stroke-width="1" fill="none" fill-rule="evenodd">
        <g id="Scrapbox" transform="translate(-698.000000, -692.000000)" fill="#262626" fill-rule="nonzero">
            <g id="Scrapbox-text" transform="translate(698.000000, 692.000000)">
                <path d="M17.6269531,6.95800781 L14.1201172,9.03613281 C13.464515,7.89810629 12.8398467,7.15592621 12.2460938,6.80957031 C11.6276011,6.413735 10.8297575,6.21582031 9.85253906,6.21582031 C8.65266327,6.21582031 7.656905,6.55598618 6.86523438,7.23632812 C6.07356375,7.90430021 5.67773438,8.74543764 5.67773438,9.75976562 C5.67773438,11.1575591 6.71678648,12.2831989 8.79492188,13.1367188 L11.6523438,14.3056641 C13.9778762,15.2457729 15.6787056,16.3930596 16.7548828,17.7475586 C17.8310601,19.1020576 18.3691406,20.7626855 18.3691406,22.7294922 C18.3691406,25.364271 17.4908942,27.5413325 15.734375,29.2607422 C13.9654859,30.9925217 11.7698699,31.8583984 9.14746094,31.8583984 C6.66112038,31.8583984 4.6077555,31.1224032 2.98730469,29.6503906 C1.39159358,28.1783781 0.395835313,26.1064587 0,23.4345703 L4.37890625,22.4697266 C4.57682391,24.1520266 4.92317461,25.3147754 5.41796875,25.9580078 C6.3085982,27.1949932 7.60741334,27.8134766 9.31445312,27.8134766 C10.6627672,27.8134766 11.7822221,27.3619837 12.6728516,26.4589844 C13.563481,25.5559851 14.0087891,24.4117908 14.0087891,23.0263672 C14.0087891,22.4697238 13.9314786,21.959475 13.7768555,21.4956055 C13.6222323,21.031736 13.3810238,20.6049824 13.0532227,20.215332 C12.7254215,19.8256816 12.3017604,19.4607764 11.7822266,19.1206055 C11.2626927,18.7804345 10.6442093,18.4557307 9.92675781,18.1464844 L7.16210938,16.9960938 C3.24086581,15.3385334 1.28027344,12.9140785 1.28027344,9.72265625 C1.28027344,7.57030174 2.10285636,5.77051505 3.74804688,4.32324219 C5.39323739,2.86359947 7.44041744,2.13378906 9.88964844,2.13378906 C13.1923993,2.13378906 15.7714751,3.7418459 17.6269531,6.95800781 Z M36.8496094,14.0458984 L36.8496094,19.59375 C35.8971307,18.4309838 35.0436236,17.6331402 34.2890625,17.2001953 C33.5468713,16.7548806 32.6748097,16.5322266 31.6728516,16.5322266 C30.1018802,16.5322266 28.7968802,17.0826768 27.7578125,18.1835938 C26.7187448,19.2845107 26.1992188,20.6637287 26.1992188,22.3212891 C26.1992188,24.015959 26.7001903,25.4075466 27.7021484,26.4960938 C28.7164764,27.5846409 30.0091067,28.1289062 31.5800781,28.1289062 C32.5820363,28.1289062 33.4664675,27.9124371 34.2333984,27.4794922 C34.9755896,27.0589172 35.8476512,26.2425191 36.8496094,25.0302734 L36.8496094,30.5410156 C35.1549394,31.4192752 33.4602949,31.8583984 31.765625,31.8583984 C28.9700381,31.8583984 26.6321709,30.9554127 24.7519531,29.1494141 C22.8717354,27.3310456 21.9316406,25.0735812 21.9316406,22.3769531 C21.9316406,19.6803251 22.8841051,17.4043062 24.7890625,15.5488281 C26.6940199,13.6933501 29.0318872,12.765625 31.8027344,12.765625 C33.5839933,12.765625 35.2662681,13.1923785 36.8496094,14.0458984 Z M40.8945312,13.2666016 L45.0693359,13.2666016 L45.0693359,14.8808594 C45.8362669,14.0768189 46.5165986,13.5263687 47.1103516,13.2294922 C47.7164744,12.9202458 48.4339151,12.765625 49.2626953,12.765625 C50.3636123,12.765625 51.5139914,13.1243454 52.7138672,13.8417969 L50.8027344,17.6640625 C50.0110637,17.0950492 49.2379595,16.8105469 48.4833984,16.8105469 C46.2073454,16.8105469 45.0693359,18.5299307 45.0693359,21.96875 L45.0693359,31.3388672 L40.8945312,31.3388672 L40.8945312,13.2666016 Z M68.4296875,13.2666016 L72.6230469,13.2666016 L72.6230469,31.3388672 L68.4296875,31.3388672 L68.4296875,29.4462891 C66.7102779,31.05437 64.8610125,31.8583984 62.8818359,31.8583984 C60.3831255,31.8583984 58.317391,30.9554127 56.6845703,29.1494141 C55.0641195,27.3063059 54.2539062,25.0055476 54.2539062,22.2470703 C54.2539062,19.5380724 55.0641195,17.280608 56.6845703,15.4746094 C58.3050211,13.6686108 60.3336467,12.765625 62.7705078,12.765625 C64.8733829,12.765625 66.7597573,13.6315018 68.4296875,15.3632812 L68.4296875,13.2666016 Z M58.5214844,22.2470703 C58.5214844,23.9788498 58.9853469,25.388992 59.9130859,26.4775391 C60.8655647,27.578456 62.0654225,28.1289062 63.5126953,28.1289062 C65.058927,28.1289062 66.3082635,27.5970105 67.2607422,26.5332031 C68.2132209,25.4322862 68.6894531,24.0345137 68.6894531,22.3398438 C68.6894531,20.6451738 68.2132209,19.2474013 67.2607422,18.1464844 C66.3082635,17.0703071 65.0712967,16.5322266 63.5498047,16.5322266 C62.1149017,16.5322266 60.9150439,17.076492 59.9501953,18.1650391 C58.9977166,19.265956 58.5214844,20.6266195 58.5214844,22.2470703 Z M82.0673828,41.1728516 L77.8925781,41.1728516 L77.8925781,13.2666016 L82.0673828,13.2666016 L82.0673828,15.2333984 C83.7125733,13.5882079 85.5803932,12.765625 87.6708984,12.765625 C90.157239,12.765625 92.204419,13.6809804 93.8125,15.5117188 C95.4453207,17.3300872 96.2617188,19.6246606 96.2617188,22.3955078 C96.2617188,25.1045057 95.4515055,27.3619701 93.8310547,29.1679688 C92.2229737,30.9615975 90.1943482,31.8583984 87.7451172,31.8583984 C85.6298722,31.8583984 83.737313,31.0110762 82.0673828,29.3164062 L82.0673828,41.1728516 Z M91.9941406,22.4140625 C91.9941406,20.682283 91.5240932,19.2721409 90.5839844,18.1835938 C89.6315057,17.0826768 88.4316479,16.5322266 86.984375,16.5322266 C85.4505132,16.5322266 84.2073615,17.0641223 83.2548828,18.1279297 C82.3024041,19.1917371 81.8261719,20.5895096 81.8261719,22.3212891 C81.8261719,24.015959 82.3024041,25.4137315 83.2548828,26.5146484 C84.1949917,27.5908257 85.4319585,28.1289062 86.9658203,28.1289062 C88.4130932,28.1289062 89.6067661,27.5846409 90.546875,26.4960938 C91.5117236,25.4075466 91.9941406,24.0468832 91.9941406,22.4140625 Z M104.852539,0 L104.852539,15.3632812 C106.522469,13.6315018 108.415028,12.765625 110.530273,12.765625 C112.967135,12.765625 114.99576,13.6747956 116.616211,15.4931641 C118.236662,17.2991627 119.046875,19.5504422 119.046875,22.2470703 C119.046875,25.0302874 118.230477,27.3310456 116.597656,29.1494141 C114.977205,30.9554127 112.930025,31.8583984 110.456055,31.8583984 C108.365549,31.8583984 106.49773,31.05437 104.852539,29.4462891 L104.852539,31.3388672 L100.677734,31.3388672 L100.677734,0 L104.852539,0 Z M114.779297,22.4326172 C114.779297,20.7008377 114.309249,19.2906955 113.369141,18.2021484 C112.416662,17.0888616 111.222989,16.5322266 109.788086,16.5322266 C108.254224,16.5322266 107.004888,17.0703071 106.040039,18.1464844 C105.08756,19.2102918 104.611328,20.5956946 104.611328,22.3027344 C104.611328,24.0592536 105.081376,25.4632109 106.021484,26.5146484 C106.961593,27.5908257 108.19856,28.1289062 109.732422,28.1289062 C111.179695,28.1289062 112.379553,27.5908257 113.332031,26.5146484 C114.29688,25.4261013 114.779297,24.0654379 114.779297,22.4326172 Z M122.609375,22.1728516 C122.609375,19.5628125 123.543285,17.3424571 125.411133,15.5117188 C127.278981,13.6809804 129.555,12.765625 132.239258,12.765625 C134.935886,12.765625 137.224274,13.6871653 139.104492,15.5302734 C140.95997,17.3733816 141.887695,19.6370308 141.887695,22.3212891 C141.887695,25.030287 140.953785,27.3001211 139.085938,29.1308594 C137.20572,30.9492278 134.898777,31.8583984 132.165039,31.8583984 C129.456041,31.8583984 127.186207,30.9306733 125.355469,29.0751953 C123.52473,27.244457 122.609375,24.9436988 122.609375,22.1728516 Z M126.876953,22.2470703 C126.876953,24.0530689 127.35937,25.4817656 128.324219,26.5332031 C129.313807,27.5970105 130.618807,28.1289062 132.239258,28.1289062 C133.872078,28.1289062 135.177078,27.6031954 136.154297,26.5517578 C137.131515,25.5003203 137.620117,24.0963629 137.620117,22.3398438 C137.620117,20.5833246 137.131515,19.1793672 136.154297,18.1279297 C135.164709,17.0641223 133.859709,16.5322266 132.239258,16.5322266 C130.643547,16.5322266 129.350916,17.0641223 128.361328,18.1279297 C127.37174,19.1917371 126.876953,20.5647702 126.876953,22.2470703 Z M151.907227,21.5605469 L145.413086,13.2666016 L150.385742,13.2666016 L154.412109,18.5361328 L158.512695,13.2666016 L163.633789,13.2666016 L156.954102,21.5605469 L164.691406,31.3388672 L159.71875,31.3388672 L154.412109,24.5849609 L148.975586,31.3388672 L143.873047,31.3388672 L151.907227,21.5605469 Z" id="Scrapbox"></path>
            </g>
        </g>
    </g>
</svg>