<?xml version="1.0" encoding="UTF-8"?>
<svg width="260px" height="366px" viewBox="0 0 260 366" version="1.1" xmlns="http://www.w3.org/2000/svg" xmlns:xlink="http://www.w3.org/1999/xlink">
    <!-- Generator: sketchtool 59 (101010) - https://sketch.com -->
    <title>F2B95978-77DE-45AE-812E-4B2143253AC0@1.00x</title>
    <desc>Created with sketchtool.</desc>
    <defs>
        <path d="M58.688891,1.21965773 L5.74653873,28.3168671 C2.57281302,29.9412587 -4.26325641e-14,34.1560019 -4.26325641e-14,37.7328083 L-4.26325641e-14,90.7426712 C-4.26325641e-14,94.3185605 2.56570807,98.5305844 5.74653873,100.158612 L60.9938816,128.435573 C62.8945961,129.408406 62.8904132,130.987821 60.9938816,131.958512 L5.74653873,160.235474 C2.57281302,161.859865 2.56570807,164.489887 5.74653873,166.117915 L58.688891,193.215124 C61.8626167,194.839517 67.0010862,194.843153 70.1818531,193.215124 L123.123142,166.117915 C126.296804,164.493524 128.869565,160.278781 128.869565,156.701974 L128.869565,103.692111 C128.869565,100.116222 126.303909,95.9041983 123.123142,94.2761703 L67.8769089,65.9992095 C65.9762325,65.0263766 65.9804152,63.446962 67.8769089,62.4762699 L123.123142,34.1993093 C126.296804,32.5749178 126.303909,29.9448952 123.123142,28.3168671 L70.1818531,1.21965773 C67.0081911,-0.404733822 61.8697217,-0.408370316 58.688891,1.21965773 Z" id="path-1"></path>
    </defs>
    <g id="Tile" stroke="none" stroke-width="1" fill="none" fill-rule="evenodd">
        <g id="Scrapbox" transform="translate(-170.000000, -987.000000)">
            <g id="Scrapbox-Logo1" transform="translate(170.000000, 987.000000)">
                <path d="M46.3150391,321.04541 L41.7561523,323.746973 C40.9038694,322.267538 40.0918007,321.302704 39.3199219,320.852441 C38.5158814,320.337855 37.4786847,320.080566 36.2083008,320.080566 C34.6484623,320.080566 33.3539765,320.522782 32.3248047,321.407227 C31.2956329,322.27559 30.7810547,323.369069 30.7810547,324.687695 C30.7810547,326.504827 32.1318224,327.968159 34.8333984,329.077734 L38.5480469,330.597363 C41.5712391,331.819505 43.7823172,333.310978 45.1813477,335.071826 C46.5803781,336.832675 47.2798828,338.991491 47.2798828,341.54834 C47.2798828,344.973552 46.1381625,347.803732 43.8546875,350.038965 C41.5551317,352.290278 38.7008308,353.415918 35.2916992,353.415918 C32.0594565,353.415918 29.3900821,352.459124 27.2834961,350.545508 C25.2090717,348.631891 23.9145859,345.938396 23.4,342.464941 L29.0925781,341.210645 C29.3498711,343.397635 29.800127,344.909208 30.4433594,345.74541 C31.6011777,347.353491 33.2896373,348.15752 35.5087891,348.15752 C37.2615973,348.15752 38.7168887,347.570579 39.874707,346.39668 C41.0325253,345.222781 41.6114258,343.735328 41.6114258,341.934277 C41.6114258,341.210641 41.5109222,340.547317 41.3099121,339.944287 C41.108902,339.341257 40.7953309,338.786477 40.3691895,338.279932 C39.943048,337.773386 39.3922885,337.299009 38.7168945,336.856787 C38.0415005,336.414565 37.2374721,335.99245 36.3047852,335.59043 L32.7107422,334.094922 C27.6131256,331.940093 25.0643555,328.788302 25.0643555,324.639453 C25.0643555,321.841392 26.1337133,319.50167 28.2724609,317.620215 C30.4112086,315.722679 33.0725427,314.773926 36.256543,314.773926 C40.5501191,314.773926 43.9029176,316.8644 46.3150391,321.04541 Z M71.3044922,330.259668 L71.3044922,337.471875 C70.0662699,335.960279 68.9567106,334.923082 67.9757813,334.360254 C67.0109327,333.781345 65.8772526,333.491895 64.574707,333.491895 C62.5324442,333.491895 60.8359443,334.20748 59.4851563,335.638672 C58.1343682,337.069864 57.4589844,338.862847 57.4589844,341.017676 C57.4589844,343.220747 58.1102474,345.029811 59.412793,346.444922 C60.7314194,347.860033 62.4118387,348.567578 64.4541016,348.567578 C65.7566471,348.567578 66.9064078,348.286168 67.903418,347.72334 C68.8682665,347.176592 70.0019466,346.115275 71.3044922,344.539355 L71.3044922,351.70332 C69.1014213,352.845058 66.8983834,353.415918 64.6953125,353.415918 C61.0610495,353.415918 58.0218221,352.242036 55.5775391,349.894238 C53.133256,347.530359 51.9111328,344.595656 51.9111328,341.090039 C51.9111328,337.584423 53.1493366,334.625598 55.6257813,332.213477 C58.1022259,329.801355 61.1414533,328.595312 64.7435547,328.595312 C67.0591913,328.595312 69.2461486,329.150092 71.3044922,330.259668 Z M76.5628906,329.246582 L81.9901367,329.246582 L81.9901367,331.345117 C82.9871469,330.299865 83.8715782,329.584279 84.643457,329.19834 C85.4314167,328.79632 86.3640897,328.595312 87.4415039,328.595312 C88.872696,328.595312 90.3681888,329.061649 91.9280273,329.994336 L89.4435547,334.963281 C88.4143829,334.223564 87.4093474,333.853711 86.428418,333.853711 C83.469549,333.853711 81.9901367,336.08891 81.9901367,340.559375 L81.9901367,352.740527 L76.5628906,352.740527 L76.5628906,329.246582 Z M112.358594,329.246582 L117.809961,329.246582 L117.809961,352.740527 L112.358594,352.740527 L112.358594,350.280176 C110.123361,352.370681 107.719316,353.415918 105.146387,353.415918 C101.898063,353.415918 99.2126083,352.242036 97.0899414,349.894238 C94.9833554,347.498198 93.9300781,344.507212 93.9300781,340.921191 C93.9300781,337.399494 94.9833554,334.46479 97.0899414,332.116992 C99.1965275,329.769194 101.833741,328.595312 105.00166,328.595312 C107.735398,328.595312 110.187684,329.720952 112.358594,331.972266 L112.358594,329.246582 Z M99.4779297,340.921191 C99.4779297,343.172505 100.080951,345.00569 101.287012,346.420801 C102.525234,347.851993 104.085049,348.567578 105.966504,348.567578 C107.976605,348.567578 109.600743,347.876114 110.838965,346.493164 C112.077187,345.061972 112.696289,343.244868 112.696289,341.041797 C112.696289,338.838726 112.077187,337.021622 110.838965,335.59043 C109.600743,334.191399 107.992686,333.491895 106.014746,333.491895 C104.149372,333.491895 102.589557,334.19944 101.335254,335.614551 C100.097032,337.045743 99.4779297,338.814605 99.4779297,340.921191 Z M130.087598,365.524707 L124.660352,365.524707 L124.660352,329.246582 L130.087598,329.246582 L130.087598,331.803418 C132.226345,329.66467 134.654511,328.595312 137.372168,328.595312 C140.604411,328.595312 143.265745,329.785275 145.35625,332.165234 C147.478917,334.529113 148.540234,337.512059 148.540234,341.11416 C148.540234,344.635857 147.486957,347.570561 145.380371,349.918359 C143.289866,352.250077 140.652653,353.415918 137.468652,353.415918 C134.718834,353.415918 132.258507,352.314399 130.087598,350.111328 L130.087598,365.524707 Z M142.992383,341.138281 C142.992383,338.886968 142.381321,337.053783 141.15918,335.638672 C139.920957,334.20748 138.361142,333.491895 136.479688,333.491895 C134.485667,333.491895 132.86957,334.183359 131.631348,335.566309 C130.393125,336.949258 129.774023,338.766362 129.774023,341.017676 C129.774023,343.220747 130.393125,345.037851 131.631348,346.469043 C132.853489,347.868073 134.461546,348.567578 136.455566,348.567578 C138.337021,348.567578 139.888796,347.860033 141.110938,346.444922 C142.365241,345.029811 142.992383,343.260948 142.992383,341.138281 Z M159.708301,312 L159.708301,331.972266 C161.87921,329.720952 164.339537,328.595312 167.089355,328.595312 C170.257275,328.595312 172.894488,329.777234 175.001074,332.141113 C177.10766,334.488911 178.160938,337.415575 178.160938,340.921191 C178.160938,344.539374 177.09962,347.530359 174.976953,349.894238 C172.870367,352.242036 170.209033,353.415918 166.992871,353.415918 C164.275214,353.415918 161.847048,352.370681 159.708301,350.280176 L159.708301,352.740527 L154.281055,352.740527 L154.281055,312 L159.708301,312 Z M172.613086,341.162402 C172.613086,338.911089 172.002024,337.077904 170.779883,335.662793 C169.54166,334.21552 167.989886,333.491895 166.124512,333.491895 C164.130491,333.491895 162.506354,334.191399 161.252051,335.59043 C160.013828,336.973379 159.394727,338.774403 159.394727,340.993555 C159.394727,343.27703 160.005788,345.102174 161.22793,346.469043 C162.450071,347.868073 164.058128,348.567578 166.052148,348.567578 C167.933603,348.567578 169.493418,347.868073 170.731641,346.469043 C171.985944,345.053932 172.613086,343.285069 172.613086,341.162402 Z M182.792188,340.824707 C182.792188,337.431656 184.00627,334.545194 186.434473,332.165234 C188.862675,329.785275 191.821499,328.595312 195.311035,328.595312 C198.816652,328.595312 201.791557,329.793315 204.23584,332.189355 C206.647961,334.585396 207.854004,337.52814 207.854004,341.017676 C207.854004,344.539373 206.639921,347.490157 204.211719,349.870117 C201.767436,352.233996 198.76841,353.415918 195.214551,353.415918 C191.692853,353.415918 188.742069,352.209875 186.362109,349.797754 C183.98215,347.417794 182.792188,344.426808 182.792188,340.824707 Z M188.340039,340.921191 C188.340039,343.26899 188.967181,345.126295 190.221484,346.493164 C191.507949,347.876114 193.204449,348.567578 195.311035,348.567578 C197.433702,348.567578 199.130202,347.884154 200.400586,346.517285 C201.67097,345.150416 202.306152,343.325272 202.306152,341.041797 C202.306152,338.758322 201.67097,336.933177 200.400586,335.566309 C199.114121,334.183359 197.417621,333.491895 195.311035,333.491895 C193.236611,333.491895 191.556191,334.183359 190.269727,335.566309 C188.983262,336.949258 188.340039,338.734201 188.340039,340.921191 Z M220.879395,340.028711 L212.437012,329.246582 L218.901465,329.246582 L224.135742,336.096973 L229.466504,329.246582 L236.123926,329.246582 L227.440332,340.028711 L237.498828,352.740527 L231.034375,352.740527 L224.135742,343.960449 L217.068262,352.740527 L210.434961,352.740527 L220.879395,340.028711 Z" id="Scrapbox" fill="#262626" fill-rule="nonzero"></path>
                <g id="Scrapbox-circle" transform="translate(0.000000, 0.000000)" fill-rule="evenodd">
                    <circle id="circle" fill="#FFFFFF" cx="130" cy="130" r="130"></circle>
                    <g id="Rectangle" stroke-width="1" transform="translate(65.565217, 32.782609)">
                        <mask id="mask-2" fill="white">
                            <use xlink:href="#path-1"></use>
                        </mask>
                        <use id="Mask" fill="#05EC40" xlink:href="#path-1"></use>
                        <polygon fill="#00B52E" mask="url(#mask-2)" points="64.4347826 1.91701745e-14 128.869565 1.91701745e-14 128.869565 194.434783 64.4347826 194.434783"></polygon>
                        <path d="M66.6956522,162.782609 L127.451163,131.753214 C129.344449,130.786263 129.340282,129.216285 127.451163,128.251322 L66.6956522,97.2173913 L66.6956522,162.782609 Z" id="Mask-Copy" fill="#004D3F" mask="url(#mask-2)" transform="translate(97.782609, 130.000000) scale(-1, 1) translate(-97.782609, -130.000000) "></path>
                        <path d="M0,96.0869565 L60.7555103,65.057561 C62.6487967,64.0906112 62.6446301,62.5206328 60.7555103,61.55567 L0,30.5217391 L0,96.0869565 Z" id="Mask" fill="#FCFF19" mask="url(#mask-2)"></path>
                    </g>
                </g>
            </g>
        </g>
    </g>
</svg>